# xmcd
#
# Track frame offsets:
# 183
# 13308
# 30933
# 41483
# 62583
# 80133
# 93483
# 113095
# 126558
# 144183
# 166533
# 177383
# 190658
# 212658
#
# Disc length: 3029 seconds
#
# Revision: 1
# Processed by: cddbd v1.5.2PL0 Copyright (c) Steve Scherf et al.
# Submitted via: CedeCatalogueitor 2.6.0.6 http://personales.ya.com/cdcatalogueitor
#
DISCID=b60bd30e
DTITLE=Varios - FLASH BACK. TEMPS DE CANÇONS. VOLUM 3
DYEAR=1900
DGENRE=
TTITLE0=Festa Major
TTITLE1=A Cop De Pedal
TTITLE2=Els Temps Podrà Passar
TTITLE3=Antaviana. Canço I Dança Del Primer Arlequí
TTITLE4=Passejant Per Barcelona
TTITLE5=Cal Que Neixin Flors A Cada Instant
TTITLE6=Puff Era Un Drac Màgic
TTITLE7=La Canço Del Tururut
TTITLE8=L'atlantida
TTITLE9=Aranjuez Pensant En Tu
TTITLE10=Vinyes Verdes Vora El Mar
TTITLE11=Romanço Del Fill De Vídua
TTITLE12=Jo Visc A Barcelona
TTITLE13=Poemes D'amor
EXTD=
EXTT0=
EXTT1=
EXTT2=
EXTT3=
EXTT4=
EXTT5=
EXTT6=
EXTT7=
EXTT8=
EXTT9=
EXTT10=
EXTT11=
EXTT12=
EXTT13=
PLAYORDER=
